<svg xmlns="http://www.w3.org/2000/svg" viewBox="0 0 64 64" role="img" aria-label="The Smurf">
  <defs>
    <linearGradient id="bg" x1="0" y1="0" x2="1" y2="1">
      <stop offset="0%" stop-color="#0a0a1a"/>
      <stop offset="100%" stop-color="#1f3fb5"/>
    </linearGradient>
    <linearGradient id="s" x1="0" y1="0" x2="1" y2="1">
      <stop offset="0%" stop-color="#7dd3fc"/>
      <stop offset="100%" stop-color="#60a5fa"/>
    </linearGradient>
  </defs>
  <rect width="64" height="64" rx="14" fill="url(#bg)"/>
  <path d="M46 20c-2-4-6-6-12-6-8 0-14 4-14 10 0 5 4 8 11 9l5 1c3 .5 4 1.5 4 3 0 2-2 3-6 3-4 0-7-1.5-9-4l-7 5c3 5 9 8 16 8 9 0 15-4 15-11 0-5-3-8-10-9l-6-1c-3-.5-4-1.5-4-3 0-2 2-3 5-3 4 0 6 1.5 8 4z" fill="url(#s)"/>
</svg>
